<svg width="150" height="147" viewBox="0 0 150 147" fill="none" xmlns="http://www.w3.org/2000/svg">
<path d="M143.672 63.0273C136.933 63.1754 144.746 71.6552 116.603 67.9893C116.344 66.1378 116.011 64.2863 115.566 62.5089C119.528 60.0649 123.343 58.2134 124.713 58.954C128.786 61.1017 133.489 60.1389 131.933 53.0292C131.933 53.0292 128.193 43.6977 122.158 47.6599C118.158 50.289 123.602 52.5478 114.455 58.6577C112.863 53.7698 110.567 49.2521 107.679 45.364C112.234 39.5133 119.714 30.515 122.491 31.0705C127.601 32.0332 132.304 29.4411 128.305 22.3314C128.305 22.3314 121.232 13.5553 116.048 19.8134C111.9 24.8124 122.343 24.6643 104.383 41.4018C101.162 38.0321 97.3846 35.403 93.2743 33.8847C94.9776 29.0708 96.9772 24.5902 98.6436 24.294C103.161 23.4423 106.235 19.7763 100.606 15.1476C100.606 15.1476 91.9042 10.1856 89.6083 17.0361C88.016 21.9241 94.6073 19.7023 89.5713 32.8109C88.7566 32.6627 87.942 32.5146 87.1273 32.4406C83.2021 32.0703 79.6102 31.9962 76.2775 32.1814C75.2037 25.0346 73.6484 12.0001 76.0924 10.2967C80.3508 7.29727 81.758 2.11308 73.8706 0.0394063C73.8706 0.0394063 62.6505 -0.960401 63.5392 7.11212C64.2428 13.7405 71.8339 5.4828 70.9082 32.6627C65.9092 33.3663 61.7248 34.6253 58.244 36.1065C55.6519 30.7742 53.1709 24.8124 54.3188 23.2201C56.9479 19.4431 56.5776 14.7032 49.3568 15.2957C49.3568 15.2957 39.655 17.8508 42.8025 24.331C45.1724 29.1819 48.5421 22.1092 54.6521 37.8099C49.8012 40.4761 46.6536 43.4384 44.9132 45.4381C40.7288 42.4757 25.8798 31.7 26.4723 28.1451C27.361 23.072 24.6949 18.4062 17.6592 22.5166C17.6592 22.5166 9.03124 29.8114 15.3633 34.8475C20.8438 39.217 19.9921 26.7009 41.6175 50.7704C40.1364 53.7328 38.9884 56.6211 38.0627 59.4354C32.8785 57.2136 27.6943 54.5104 27.5092 52.6589C27.0278 48.1042 23.621 44.7345 18.585 49.9557C18.585 49.9557 12.9194 58.2504 19.5477 61.0647C24.4727 63.1754 22.4731 55.7324 36.9888 63.2494C36.2112 66.434 35.7668 69.5075 35.6187 72.4699C30.2494 72.8772 12.401 73.9881 10.6235 70.9146C8.03143 66.434 2.99536 64.5455 0.218121 72.2107C0.218121 72.2107 -1.78149 83.2826 6.32805 83.1345C13.2526 83.0234 4.84686 74.0992 35.7668 78.5428C35.8779 79.8759 36.1001 81.2089 36.3593 82.505C31.7306 85.4674 26.8797 88.0965 25.2874 87.2448C21.2141 85.0971 16.5483 86.0599 18.0665 93.1696C18.0665 93.1696 21.8066 102.464 27.8424 98.5019C32.1009 95.7247 25.7317 93.3918 37.3221 86.4302C38.7662 91.0589 40.988 95.2063 43.8393 98.8352C39.692 104.316 30.6567 115.721 27.5092 115.128C22.4361 114.166 17.6962 116.758 21.6955 123.867C21.6955 123.867 28.7682 132.606 33.9524 126.385C38.2478 121.201 26.9167 121.535 47.5794 102.983C50.9121 106.167 54.7632 108.759 58.9105 110.685C57.059 116.498 54.541 122.942 52.5414 123.312C47.9867 124.164 44.9132 127.83 50.5418 132.421C50.5418 132.421 59.2808 137.42 61.5396 130.533C63.243 125.386 55.763 128.163 62.6505 112.24C66.7979 113.721 71.2044 114.573 75.6851 114.721C76.3886 122.09 77.1292 134.014 74.6852 135.569C70.3157 138.309 68.6494 143.419 76.4257 145.9C76.4257 145.9 87.6087 147.418 87.1273 139.309C86.72 132.755 78.9807 140.309 80.8692 114.573C85.461 114.203 90.0527 113.018 94.4592 110.981C97.2365 115.721 99.6804 120.646 98.7917 122.238C96.4959 126.2 97.3105 130.94 104.457 129.644C104.457 129.644 113.9 126.237 110.16 120.053C107.457 115.61 104.828 122.312 97.903 109.204C98.0881 109.092 98.3103 108.981 98.5325 108.833C101.791 106.871 104.568 104.575 106.901 102.057C112.493 106.093 124.046 114.869 123.528 118.017C122.639 123.127 125.342 127.793 132.378 123.645C132.378 123.645 140.969 116.387 134.637 111.351C129.341 107.093 129.971 118.72 110.419 97.6132C112.382 94.6508 113.9 91.4292 114.974 88.0965C118.973 90.0221 122.343 92.0217 122.528 93.5029C122.972 98.0946 126.379 101.464 131.452 96.2431C131.452 96.2431 137.081 87.9484 130.452 85.1341C125.898 83.1715 127.305 89.3926 115.974 84.3565C116.788 80.8386 117.084 77.1727 117.01 73.5438C124.12 73.0994 137.858 72.618 139.414 75.2842C141.969 79.7648 147.005 81.6533 149.782 73.9881C149.782 73.9881 151.781 62.8791 143.672 63.0273Z" fill="#111B77"/>
<path d="M79.7214 42.1424C79.7214 42.1424 89.9416 40.6982 91.645 52.3256C93.3484 63.953 80.7582 63.1013 75.4629 54.6215C70.1677 46.1046 75.8332 41.8832 79.7214 42.1424Z" fill="#0E1668"/>
<path d="M53.0969 74.5066C53.0969 74.5066 63.3542 73.0995 65.0575 84.6898C66.7609 96.3172 54.1707 95.4655 48.8755 86.9857C43.5802 78.4688 49.2458 74.2474 53.0969 74.5066Z" fill="#0E1668"/>
<path d="M69.2418 68.7301C69.2418 68.7301 75.2036 67.9154 76.1664 74.6549C77.1662 81.3573 69.8713 80.8759 66.7978 75.9509C63.7244 71.026 67.02 68.582 69.2418 68.7301Z" fill="#0E1668"/>
<path d="M97.5326 45.4012C97.5326 45.4012 103.457 44.5866 104.42 51.326C105.42 58.0284 98.1251 57.547 95.0516 52.6221C91.9781 47.6971 95.2738 45.2531 97.5326 45.4012Z" fill="#0E1668"/>
<path d="M96.4588 102.094C96.4588 102.094 96.3848 108.093 89.6083 108.093C82.7948 108.056 84.35 100.909 89.6823 98.6131C94.9776 96.3173 96.9402 99.9092 96.4588 102.094Z" fill="#0E1668"/>
<path d="M106.087 62.1757C106.087 62.1757 116.159 70.8777 106.346 82.394C96.5699 93.8733 86.6829 80.9869 90.4229 68.6559C94.1259 56.325 103.05 58.2135 106.087 62.1757Z" fill="#0E1668"/>
</svg>
