<svg width="254" height="247" viewBox="0 0 254 247" fill="none" xmlns="http://www.w3.org/2000/svg">
<path d="M242.886 106.551C231.492 106.802 244.701 121.137 197.124 114.94C196.686 111.81 196.123 108.68 195.371 105.675C202.07 101.543 208.518 98.413 210.834 99.665C217.72 103.296 225.67 101.668 223.041 89.6489C223.041 89.6489 216.718 73.8734 206.514 80.5717C199.753 85.0164 208.956 88.835 193.493 99.1642C190.801 90.9009 186.92 83.2635 182.037 76.6904C189.737 66.7994 202.383 51.5874 207.078 52.5264C215.717 54.154 223.667 49.7719 216.906 37.7525C216.906 37.7525 204.949 22.916 196.185 33.4956C189.174 41.9468 206.827 41.6964 176.466 69.9921C171.019 64.2954 164.634 59.8507 157.685 57.2841C160.565 49.1459 163.946 41.5712 166.763 41.0704C174.4 39.6305 179.596 33.433 170.08 25.6079C170.08 25.6079 155.369 17.2193 151.488 28.8005C148.796 37.0639 159.939 33.3078 151.425 55.4686C150.048 55.2182 148.671 54.9678 147.294 54.8426C140.658 54.2166 134.586 54.0914 128.951 54.4044C127.136 42.3224 124.507 20.2868 128.638 17.4071C135.838 12.3364 138.216 3.57228 124.882 0.0666186C124.882 0.0666186 105.914 -1.62361 107.417 12.0234C108.606 23.229 121.439 9.26898 119.874 55.2182C111.423 56.4076 104.349 58.5361 98.4647 61.0401C94.0827 52.0256 89.8884 41.9468 91.829 39.2549C96.2737 32.8696 95.6477 24.8567 83.4405 25.8583C83.4405 25.8583 67.039 30.1778 72.3601 41.133C76.3665 49.3337 82.0632 37.3769 92.3924 63.9198C84.1917 68.4271 78.8706 73.4352 75.9283 76.8156C68.8544 71.8075 43.7513 53.5906 44.753 47.5809C46.2554 39.0045 41.7481 31.1168 29.8539 38.0655C29.8539 38.0655 15.2678 50.3979 25.9726 58.9117C35.2376 66.2986 33.7978 45.1394 70.3568 85.8302C67.8528 90.8383 65.9121 95.7212 64.3471 100.479C55.583 96.7228 46.8188 92.1529 46.5058 89.0228C45.692 81.3229 39.9327 75.6262 31.4189 84.453C31.4189 84.453 21.8409 98.4756 33.0465 103.233C41.3725 106.802 37.992 94.2187 62.5317 106.927C61.2171 112.31 60.4658 117.506 60.2154 122.514C51.1383 123.203 20.9645 125.081 17.9597 119.885C13.5776 112.31 5.06383 109.118 0.368747 122.076C0.368747 122.076 -3.01172 140.794 10.6979 140.544C22.4043 140.356 8.19389 125.269 60.4658 132.781C60.6536 135.035 61.0293 137.288 61.4675 139.479C53.6423 144.487 45.4416 148.932 42.7497 147.492C35.8636 143.861 27.9758 145.489 30.5425 157.508C30.5425 157.508 36.8652 173.221 47.0692 166.523C54.2683 161.828 43.5009 157.884 63.0951 146.115C65.5365 153.94 69.2926 160.952 74.1129 167.086C67.1016 176.351 51.8269 195.633 46.5058 194.631C37.9294 193.003 29.9165 197.385 36.6774 209.405C36.6774 209.405 48.6342 224.179 57.3984 213.662C64.6601 204.898 45.5042 205.461 80.4356 174.098C86.0697 179.481 92.5802 183.864 99.5916 187.119C96.4615 196.947 92.2046 207.84 88.8242 208.466C81.1242 209.906 75.9283 216.103 85.4437 223.866C85.4437 223.866 100.218 232.317 104.036 220.673C106.916 211.971 94.2705 216.667 105.914 189.748C112.926 192.252 120.375 193.692 127.95 193.942C129.139 206.4 130.391 226.558 126.26 229.187C118.873 233.819 116.056 242.458 129.202 246.653C129.202 246.653 148.107 249.219 147.294 235.51C146.605 224.429 133.521 237.2 136.714 193.692C144.477 193.066 152.239 191.063 159.689 187.62C164.384 195.633 168.515 203.959 167.013 206.65C163.132 213.349 164.509 221.362 176.591 219.171C176.591 219.171 192.554 213.411 186.232 202.957C181.662 195.445 177.217 206.776 165.511 184.615C165.824 184.427 166.199 184.239 166.575 183.989C172.084 180.671 176.779 176.79 180.723 172.533C190.175 179.356 209.707 194.193 208.831 199.514C207.328 208.153 211.898 216.041 223.792 209.029C223.792 209.029 238.316 196.759 227.611 188.246C218.659 181.047 219.723 200.703 186.67 165.021C189.988 160.013 192.554 154.566 194.37 148.932C201.131 152.187 206.827 155.568 207.14 158.072C207.892 165.834 213.651 171.531 222.227 162.704C222.227 162.704 231.743 148.682 220.537 143.924C212.837 140.606 215.216 151.123 196.06 142.609C197.437 136.662 197.938 130.465 197.813 124.33C209.832 123.579 233.057 122.765 235.686 127.272C240.006 134.847 248.52 138.04 253.215 125.081C253.215 125.081 256.595 106.301 242.886 106.551Z" fill="#0F176C"/>
<path d="M134.773 71.2441C134.773 71.2441 152.051 68.8027 154.931 88.4594C157.811 108.116 136.526 106.676 127.574 92.3407C118.622 77.9424 128.2 70.8059 134.773 71.2441Z" fill="#0A0F4F"/>
<path d="M89.7632 125.958C89.7632 125.958 107.104 123.579 109.983 143.173C112.863 162.83 91.5786 161.39 82.6267 147.054C73.6747 132.656 83.2527 125.519 89.7632 125.958Z" fill="#0A0F4F"/>
<path d="M117.057 116.192C117.057 116.192 127.136 114.815 128.764 126.208C130.454 137.539 118.122 136.725 112.926 128.399C107.73 120.073 113.301 115.941 117.057 116.192Z" fill="#0A0F4F"/>
<path d="M164.885 76.7531C164.885 76.7531 174.901 75.3759 176.528 86.7693C178.219 98.1001 165.886 97.2863 160.69 88.9604C155.494 80.6344 161.066 76.5027 164.885 76.7531Z" fill="#0A0F4F"/>
<path d="M163.069 172.595C163.069 172.595 162.944 182.737 151.488 182.737C139.969 182.674 142.598 170.592 151.613 166.711C160.565 162.83 163.883 168.902 163.069 172.595Z" fill="#0A0F4F"/>
<path d="M179.345 105.111C179.345 105.111 196.373 119.823 179.784 139.292C163.257 158.698 146.542 136.913 152.865 116.067C159.125 95.2204 174.212 98.413 179.345 105.111Z" fill="#0A0F4F"/>
</svg>
