<svg width="26" height="26" viewBox="0 0 26 26" fill="none" xmlns="http://www.w3.org/2000/svg">
<path d="M23.974 22.7785L19.9922 15.8827C21.5493 14.1921 22.4836 11.9454 22.4836 9.47622C22.4836 6.85135 21.4159 4.49342 19.703 2.78058C17.9902 1.06774 15.6323 0 13.0074 0C10.3825 0 8.02459 1.06774 6.31175 2.78058C4.59892 4.49342 3.53117 6.85135 3.53117 9.47622C3.53117 11.9454 4.46545 14.1921 6.02257 15.8827L2.04078 22.7785C1.97405 22.8898 1.9518 23.0455 1.99629 23.2012C2.08527 23.4459 2.3522 23.5571 2.5969 23.4681L5.77788 22.2002L6.26726 25.6036C6.28951 25.7371 6.35624 25.8705 6.48971 25.9373C6.71216 26.0707 7.00134 25.9818 7.13481 25.7593L11.1611 18.7967C11.7395 18.908 12.3623 18.9747 12.9629 18.9747C13.5858 18.9747 14.1864 18.908 14.7647 18.7967L18.791 25.7593C18.9245 25.9818 19.2137 26.0485 19.4361 25.9373C19.5696 25.8705 19.6363 25.7371 19.6585 25.6036L20.1479 22.2002L23.3289 23.4681C23.5736 23.5571 23.8405 23.4459 23.9295 23.2012C24.063 23.0455 24.0407 22.8898 23.974 22.7785ZM7.04583 24.1132L6.64542 21.4661C6.60093 21.2214 6.37849 21.0434 6.11155 21.0657C6.06706 21.0657 6.02257 21.0879 5.97808 21.1102L3.50893 22.0889L6.71216 16.55C7.71317 17.4398 8.91438 18.1294 10.2491 18.5298L7.04583 24.1132ZM13.0074 18.0182C10.6495 18.0182 8.51398 17.0617 6.97909 15.5268C5.44421 13.9919 4.48769 11.8564 4.48769 9.49847C4.48769 7.14054 5.44421 5.00505 6.97909 3.47017C8.51398 1.8908 10.6495 0.934276 13.0074 0.934276C15.3653 0.934276 17.5008 1.8908 19.0357 3.42568C20.5706 4.96056 21.5271 7.09605 21.5271 9.45398C21.5271 11.8119 20.5706 13.9474 19.0357 15.4823C17.5008 17.0617 15.3653 18.0182 13.0074 18.0182ZM20.0367 21.1102C19.9922 21.0879 19.9477 21.0657 19.9032 21.0657C19.6585 21.0212 19.4139 21.1992 19.3694 21.4661L18.969 24.1132L15.7657 18.5298C17.1004 18.1294 18.3016 17.4398 19.3026 16.55L22.5059 22.0889L20.0367 21.1102Z" fill="#0E1668"/>
<path d="M17.3675 7.83015C17.2562 7.67443 17.1228 7.56321 16.9671 7.49648C16.8114 7.42974 16.6334 7.38525 16.4554 7.4075H14.6091L14.0308 5.58344C13.9418 5.3165 13.7416 5.09406 13.5191 4.96059C13.3634 4.89385 13.2077 4.84937 13.0298 4.84937C12.8518 4.84937 12.6961 4.89385 12.5404 4.96059C12.2957 5.09406 12.1177 5.29426 12.0287 5.58344L11.4504 7.4075H9.60408C9.42612 7.38525 9.24817 7.42974 9.09245 7.49648C8.93674 7.56321 8.80327 7.67443 8.69205 7.83015C8.51409 8.07484 8.4696 8.34177 8.51409 8.60871C8.55858 8.87564 8.69205 9.12034 8.93674 9.29829L10.4939 10.4105L9.89326 12.2346C9.89326 12.2568 9.89326 12.2791 9.87102 12.2791C9.82653 12.4125 9.82653 12.5683 9.84877 12.724C9.87102 12.8797 9.93775 13.0354 10.049 13.1689C10.2269 13.4136 10.4716 13.547 10.7386 13.5915C11.0055 13.636 11.2947 13.5693 11.5171 13.3913L13.0742 12.2568L14.6314 13.3913C14.8761 13.5693 15.143 13.6138 15.4099 13.5915C15.6769 13.547 15.9216 13.4136 16.0995 13.1689C16.2107 13.0354 16.2552 12.8797 16.2997 12.724C16.322 12.5683 16.322 12.4348 16.2775 12.2791C16.2775 12.2568 16.2775 12.2346 16.2552 12.2346L15.6546 10.4105L17.2118 9.29829C17.4564 9.12034 17.5899 8.87564 17.6344 8.60871C17.6122 8.36402 17.5454 8.07484 17.3675 7.83015ZM16.5889 8.54198L16.5667 8.56422L14.7648 9.87665C14.6091 9.98788 14.5202 10.2103 14.5869 10.3883L15.2765 12.5015V12.5238C15.2765 12.546 15.2765 12.5683 15.2765 12.5905C15.2765 12.6127 15.2765 12.635 15.2542 12.635C15.232 12.6572 15.2097 12.6795 15.1652 12.6795C15.143 12.6795 15.0985 12.6795 15.0763 12.6572L13.2522 11.3226C13.1632 11.2558 13.0742 11.2336 12.963 11.2336C12.874 11.2336 12.7628 11.2558 12.6738 11.3226L10.8498 12.6572C10.8275 12.6795 10.783 12.6795 10.7608 12.6795C10.7386 12.6795 10.6941 12.6572 10.6718 12.635C10.6496 12.6127 10.6496 12.5905 10.6496 12.5905C10.6496 12.5683 10.6496 12.546 10.6496 12.5238V12.5015L11.3392 10.3883C11.4059 10.1881 11.3392 9.98788 11.1612 9.87665L9.44837 8.56422L9.42612 8.54198C9.40388 8.51973 9.38164 8.49749 9.38164 8.47524C9.38164 8.453 9.38164 8.40851 9.40388 8.38626C9.40388 8.38626 9.40388 8.36402 9.42612 8.36402C9.44837 8.34177 9.44837 8.34177 9.47061 8.34177C9.49286 8.34177 9.5151 8.31953 9.53735 8.31953C9.55959 8.31953 9.58184 8.31953 9.60408 8.31953H11.7841C11.9843 8.31953 12.1622 8.18606 12.229 7.98586L12.9185 5.85037C12.9185 5.82813 12.9408 5.78364 12.9853 5.78364C13.0075 5.78364 13.0298 5.7614 13.0298 5.7614C13.052 5.7614 13.0742 5.7614 13.0742 5.78364C13.0965 5.80588 13.1187 5.82813 13.141 5.85037L13.8306 7.98586C13.8973 8.16382 14.0753 8.31953 14.2755 8.31953H16.4554C16.4777 8.31953 16.4999 8.31953 16.5222 8.31953C16.5444 8.31953 16.5667 8.31953 16.5889 8.34177C16.6112 8.34177 16.6111 8.36402 16.6334 8.36402C16.6334 8.36402 16.6334 8.38626 16.6556 8.38626C16.6779 8.40851 16.6779 8.43075 16.6779 8.47524C16.6334 8.49749 16.6112 8.51973 16.5889 8.54198Z" fill="#0E1668"/>
<path d="M18.2348 4.2488C16.9001 2.91412 15.0538 2.09106 13.0073 2.09106C10.9608 2.09106 9.11448 2.91412 7.7798 4.2488C6.44512 5.58347 5.62207 7.42978 5.62207 9.47629C5.62207 11.5228 6.44512 13.3691 7.7798 14.7038C9.11448 16.0385 10.9608 16.8615 13.0073 16.8615C15.0538 16.8615 16.9001 16.0385 18.2348 14.7038C19.5695 13.3691 20.3925 11.5228 20.3925 9.47629C20.3925 7.42978 19.5695 5.58347 18.2348 4.2488ZM17.5897 14.0364C16.4107 15.2154 14.7869 15.9272 13.0073 15.9272C11.2277 15.9272 9.60386 15.1932 8.44714 14.0364C7.26818 12.8575 6.55635 11.2559 6.55635 9.47629C6.55635 7.69672 7.29042 6.07286 8.44714 4.91614C9.60386 3.73717 11.2277 3.0031 13.0073 3.0031C14.7869 3.0031 16.4107 3.73717 17.5674 4.89389C18.7464 6.07286 19.4582 7.67447 19.4582 9.45404C19.4582 11.2336 18.7464 12.8797 17.5897 14.0364Z" fill="#0E1668"/>
</svg>
