<svg width="37" height="37" viewBox="0 0 37 37" fill="none" xmlns="http://www.w3.org/2000/svg">
<g clip-path="url(#clip0)">
<path d="M26.963 8.83494H31.7689L24.4277 1.13159V6.30959C24.4277 7.70946 25.5532 8.83494 26.963 8.83494Z" fill="#56CCF2"/>
<path d="M22.8616 6.30969V-0.0722656H7.82671C5.87864 -0.0722656 4.26367 1.5331 4.26367 3.48089V33.3746C4.26367 35.3227 5.87864 36.9277 7.82671 36.9277H29.2828C31.2306 36.9277 32.8456 35.3224 32.8456 33.3746V10.4012H26.9627C24.692 10.4012 22.8616 8.57082 22.8616 6.30969ZM12.2902 19.064C12.6033 18.7704 13.1027 18.7899 13.3962 19.1033L17.7717 23.8016V12.6233C17.7717 12.1926 18.124 11.8403 18.5548 11.8403C18.9855 11.8403 19.3378 12.1926 19.3378 12.6233V23.8112L23.7133 19.1128C24.0069 18.7998 24.5062 18.78 24.8193 19.0736C25.1326 19.3675 25.1521 19.8666 24.8585 20.1799L19.1224 26.3369C18.9757 26.4933 18.7702 26.5813 18.5449 26.5813C18.3199 26.5813 18.124 26.4933 17.9676 26.3369L12.2315 20.1799C11.9574 19.8567 11.9769 19.3675 12.2902 19.064ZM27.3935 30.9568C27.3935 31.3876 27.0412 31.7399 26.6104 31.7399H10.4988C10.0681 31.7399 9.71578 31.3876 9.71578 30.9568C9.71578 30.526 10.0681 30.1737 10.4988 30.1737H26.6203C27.0511 30.1737 27.3935 30.5263 27.3935 30.9568Z" fill="#56CCF2"/>
</g>
<defs>
<clipPath id="clip0">
<rect width="37" height="37" fill="white"/>
</clipPath>
</defs>
</svg>
