<svg width="22" height="22" viewBox="0 0 22 22" fill="none" xmlns="http://www.w3.org/2000/svg">
<path d="M10.5703 17.4453C10.5703 17.6826 10.7627 17.875 11 17.875C11.2373 17.875 11.4297 17.6826 11.4297 17.4453C11.4297 17.208 11.2373 17.0156 11 17.0156C10.7627 17.0156 10.5703 17.208 10.5703 17.4453Z" fill="#0E1668"/>
<path d="M1.41797 13.5781C1.41797 12.1565 2.57443 11 3.99609 11C5.41776 11 6.57422 12.1565 6.57422 13.5781C6.57422 14.9998 5.41776 16.1562 3.99609 16.1562C2.57443 16.1562 1.41797 14.9998 1.41797 13.5781ZM3.99609 15.2969C4.94376 15.2969 5.71484 14.5258 5.71484 13.5781C5.71484 12.6305 4.94376 11.8594 3.99609 11.8594C3.04843 11.8594 2.27734 12.6305 2.27734 13.5781C2.27734 14.5258 3.04843 15.2969 3.99609 15.2969Z" fill="#0E1668"/>
<path d="M3.99609 16.1562C5.07887 16.1562 6.15863 16.6057 6.89413 17.3345C7.86227 16.0623 9.3551 15.2969 11 15.2969C12.5752 15.2969 14.1016 16.0156 15.1057 17.3345C15.8414 16.6059 16.921 16.1562 18.0039 16.1562C20.17 16.1562 22 17.9272 22 20.0234V20.8828C22 21.1201 21.8076 21.3125 21.5703 21.3125H0.429688C0.192352 21.3125 0 21.1201 0 20.8828V20.0234C0 17.9272 1.83003 16.1562 3.99609 16.1562ZM21.1406 20.0234C21.1406 18.393 19.7042 17.0156 18.0039 17.0156C17.0735 17.0156 16.1509 17.4279 15.5797 18.0831C15.9574 18.8126 16.1562 19.6256 16.1562 20.4531H21.1406V20.0234ZM11 16.1562C8.60902 16.1562 6.70312 18.0962 6.70312 20.4531H15.2969C15.2969 18.0648 13.352 16.1562 11 16.1562ZM0.859375 20.4531H5.84375C5.84375 19.6256 6.04265 18.8126 6.4203 18.0831C5.84912 17.4279 4.92647 17.0156 3.99609 17.0156C2.29581 17.0156 0.859375 18.393 0.859375 20.0234V20.4531Z" fill="#0E1668"/>
<path d="M15.4258 13.5781C15.4258 12.1565 16.5822 11 18.0039 11C19.4256 11 20.582 12.1565 20.582 13.5781C20.582 14.9998 19.4256 16.1562 18.0039 16.1562C16.5822 16.1562 15.4258 14.9998 15.4258 13.5781ZM18.0039 15.2969C18.9516 15.2969 19.7227 14.5258 19.7227 13.5781C19.7227 12.6305 18.9516 11.8594 18.0039 11.8594C17.0562 11.8594 16.2852 12.6305 16.2852 13.5781C16.2852 14.5258 17.0562 15.2969 18.0039 15.2969Z" fill="#0E1668"/>
<path d="M7.5625 11.8594C7.5625 9.96388 9.10451 8.42188 11 8.42188C12.8955 8.42188 14.4375 9.96388 14.4375 11.8594C14.4375 13.7549 12.8955 15.2969 11 15.2969C9.10451 15.2969 7.5625 13.7549 7.5625 11.8594ZM11 14.4375C12.4217 14.4375 13.5781 13.281 13.5781 11.8594C13.5781 10.4377 12.4217 9.28125 11 9.28125C9.57834 9.28125 8.42188 10.4377 8.42188 11.8594C8.42188 13.281 9.57834 14.4375 11 14.4375Z" fill="#0E1668"/>
<path d="M7.59932 3.18657C7.64984 3.03098 7.78429 2.91768 7.94626 2.89418L9.79962 2.62512L10.6295 0.928528C10.7015 0.780991 10.8512 0.6875 11.0153 0.6875C11.1795 0.6875 11.3292 0.780991 11.4014 0.92836L12.2311 2.62512L14.0844 2.89401C14.2464 2.91751 14.3808 3.03098 14.4314 3.18657C14.4819 3.34216 14.4398 3.51286 14.3226 3.627L12.9805 4.93503L13.2972 6.78218C13.3249 6.94331 13.2586 7.10629 13.1262 7.2023C12.9946 7.29797 12.8194 7.31157 12.6737 7.23503L11.0153 6.36307L9.35634 7.23503C9.21166 7.31123 9.03626 7.29848 8.90382 7.2023C8.77156 7.10612 8.70526 6.94331 8.73296 6.78201L9.05002 4.93503L7.70808 3.627C7.59093 3.51286 7.5488 3.34216 7.59932 3.18657ZM9.81188 4.47731C9.91309 4.576 9.95941 4.71834 9.93541 4.85765L9.72745 6.06934L10.8154 5.49731C10.9406 5.43152 11.0902 5.43152 11.2154 5.49731L12.3031 6.06934L12.0953 4.85765C12.0714 4.71817 12.1178 4.576 12.219 4.47731L13.0992 3.61945L11.8831 3.44287C11.7425 3.42256 11.6211 3.33394 11.5588 3.20638L11.0153 2.09523L10.472 3.20638C10.4096 3.33411 10.2882 3.42256 10.1477 3.44287L8.93152 3.61945L9.81188 4.47731Z" fill="#0E1668"/>
<path d="M1.17696 6.40704C1.22748 6.25145 1.36192 6.13815 1.5239 6.11465L2.77956 5.93221L3.34101 4.7942C3.41335 4.64751 3.56257 4.55469 3.72622 4.55469C3.72622 4.55469 3.72622 4.55469 3.72638 4.55469C3.88987 4.55469 4.03925 4.64751 4.11159 4.7942L4.67338 5.93221L5.92921 6.11465C6.09101 6.13815 6.22546 6.25145 6.27598 6.40704C6.32667 6.56264 6.28454 6.73334 6.16738 6.84747L5.25883 7.73354L5.47334 8.98399C5.50086 9.14513 5.43473 9.30794 5.3023 9.40411C5.17004 9.50029 4.99464 9.51305 4.84995 9.43701L3.72638 8.84669L2.60315 9.43701C2.45847 9.51305 2.2829 9.50029 2.15064 9.40411C2.01837 9.30811 1.95224 9.14513 1.97977 8.98399L2.19428 7.73354L1.28555 6.84747C1.1684 6.73334 1.12644 6.56264 1.17696 6.40704ZM2.9558 7.27599C3.05718 7.37468 3.10334 7.51685 3.07933 7.65616L2.97393 8.27115L3.52631 7.98094C3.65153 7.91515 3.80108 7.91515 3.92612 7.98094L4.47901 8.27132L4.37343 7.65616C4.3496 7.51685 4.39576 7.37468 4.49697 7.27599L4.94411 6.83992L4.32627 6.75029C4.18629 6.72998 4.06527 6.64203 4.00266 6.5153L3.72638 5.95554L3.45028 6.51514C3.38767 6.64203 3.26665 6.72998 3.12667 6.75029L2.50882 6.83992L2.9558 7.27599Z" fill="#0E1668"/>
<path d="M15.7863 6.40704C15.8369 6.25145 15.9713 6.13815 16.1333 6.11465L17.3889 5.93221L17.9504 4.7942C18.0227 4.64751 18.1719 4.55469 18.3356 4.55469C18.4992 4.55469 18.6486 4.64751 18.721 4.7942L19.2828 5.93221L20.5386 6.11465C20.7004 6.13815 20.8348 6.25145 20.8854 6.40704C20.936 6.56264 20.8939 6.73334 20.7768 6.84747L19.8682 7.73354L20.0825 8.98399C20.1102 9.14513 20.0439 9.30794 19.9117 9.40411C19.7794 9.50029 19.604 9.51305 19.4592 9.43701L18.3358 8.84669L17.2125 9.43701C17.0668 9.51355 16.8916 9.49979 16.76 9.40411C16.6278 9.3081 16.5615 9.14513 16.5891 8.98399L16.8037 7.73354L15.8949 6.84747C15.7778 6.73334 15.7358 6.56264 15.7863 6.40704ZM17.5653 7.27599C17.6666 7.37468 17.7127 7.51685 17.6889 7.65616L17.5833 8.27115L18.1359 7.98094C18.2609 7.91515 18.4105 7.91515 18.5355 7.98094L19.0886 8.27132L18.983 7.65616C18.959 7.51685 19.0053 7.37468 19.1065 7.27599L19.5537 6.83992L18.9356 6.75029C18.7958 6.72998 18.6748 6.64203 18.6122 6.5153L18.3359 5.95554L18.0598 6.51514C17.9972 6.64203 17.8762 6.72998 17.7362 6.75029L17.1184 6.83992L17.5653 7.27599Z" fill="#0E1668"/>
<path d="M9.11727 17.5782C9.31566 17.4478 9.58203 17.5031 9.71228 17.7014C9.8427 17.8997 9.78748 18.166 9.58908 18.2965C9.19179 18.5575 8.87422 18.9214 8.67079 19.3487C8.56908 19.5627 8.31294 19.6542 8.09827 19.5519C7.88393 19.4501 7.79296 19.1936 7.89484 18.9794C8.16574 18.4101 8.58855 17.9255 9.11727 17.5782Z" fill="#0E1668"/>
</svg>
