<svg width="22" height="22" viewBox="0 0 22 22" fill="none" xmlns="http://www.w3.org/2000/svg">
<g clip-path="url(#clip0)">
<path d="M3.89917 7.76587C3.662 7.76587 3.46948 7.95822 3.46948 8.19539C3.46948 8.43256 3.662 8.62508 3.89917 8.62508C4.13634 8.62508 4.32886 8.43256 4.32886 8.19539C4.32886 7.95822 4.13634 7.76587 3.89917 7.76587Z" fill="#0E1668"/>
<path d="M15.9385 12.9004C15.8581 12.8199 15.7486 12.7746 15.6347 12.7746C15.6303 12.7754 15.4651 12.7662 15.3309 12.9004L15.0272 13.2041L14.04 12.217C16.2186 9.16301 15.8873 4.95022 13.2043 2.26736C10.182 -0.754885 5.28995 -0.755388 2.26736 2.26736C-0.754885 5.28944 -0.755388 10.1817 2.26736 13.2043C4.94368 15.8807 9.15478 16.2241 12.2168 14.04L13.2041 15.0272L12.9004 15.3309C12.7328 15.4985 12.7326 15.7708 12.9004 15.9386L18.3326 21.3703C19.172 22.2102 20.5308 22.2107 21.3703 21.3705C22.2102 20.5313 22.2106 19.1724 21.3703 18.3328L15.9385 12.9004ZM13.8117 14.4196L12.8917 13.4997C12.9986 13.4038 13.1032 13.3055 13.2043 13.2043C13.3055 13.1032 13.4038 12.9986 13.4997 12.8919L14.4196 13.8119L13.8117 14.4196ZM2.87497 12.5966C0.188414 9.91026 0.188078 5.56169 2.87497 2.87497C5.56135 0.188414 9.90993 0.188078 12.5966 2.87497C15.2772 5.55531 15.2908 9.90288 12.5966 12.5966C9.87216 15.3215 5.52476 15.2466 2.87497 12.5966ZM15.6347 13.8119L16.8497 15.0271L15.0271 16.8497L13.8119 15.6347L15.6347 13.8119ZM20.7627 20.7629C20.2592 21.2669 19.4443 21.2671 18.9404 20.7629L15.6347 17.4573L17.4573 15.6347L20.7629 18.9406C21.2668 19.444 21.2673 20.2588 20.7627 20.7629Z" fill="#0E1668"/>
<path d="M11.9887 3.48229C9.63905 1.13261 5.83245 1.13126 3.48176 3.48196C1.13694 5.82728 1.13694 9.64344 3.48176 11.9889C5.83279 14.3398 9.6372 14.34 11.9884 11.9889C14.3337 9.64344 14.3339 5.82745 11.9887 3.48229ZM11.3808 11.3812C9.36579 13.3962 6.10487 13.3967 4.08936 11.3813C2.07957 9.37086 2.07957 6.09986 4.08936 4.08939C6.10336 2.07557 9.36646 2.07507 11.3811 4.0899C13.3913 6.10003 13.3911 9.37086 11.3808 11.3812Z" fill="#0E1668"/>
<path d="M7.73546 3.43921C6.58706 3.43921 5.50814 3.88602 4.69744 4.69722C4.22747 5.16719 3.88154 5.72243 3.66938 6.34783C3.59318 6.57241 3.71336 6.81646 3.9381 6.89266C4.16319 6.96903 4.4069 6.84818 4.4831 6.62394C4.65246 6.12459 4.92907 5.68081 5.30505 5.30466C5.9536 4.65593 6.81667 4.29859 7.73546 4.29859C7.9728 4.29859 8.16515 4.10623 8.16515 3.8689C8.16515 3.63156 7.9728 3.43921 7.73546 3.43921Z" fill="#0E1668"/>
</g>
<defs>
<clipPath id="clip0">
<rect width="22" height="22" fill="white"/>
</clipPath>
</defs>
</svg>
